<?xml version="1.0" encoding="UTF-8" standalone="no"?>
<!DOCTYPE svg PUBLIC "-//W3C//DTD SVG 1.0//EN" "http://www.w3.org/TR/2001/PR-SVG-20010719/DTD/svg10.dtd">
<svg width="44cm" height="33cm" viewBox="500 97 865 656" xmlns="http://www.w3.org/2000/svg" xmlns:xlink="http://www.w3.org/1999/xlink">
  <g>
    <rect style="fill: #ffffff" x="800" y="422" width="103" height="59"/>
    <rect style="fill: none; fill-opacity:0; stroke-width: 2; stroke: #000000" x="800" y="422" width="103" height="59"/>
  </g>
  <text font-size="12.8" style="fill: #000000;text-anchor:start;font-family:sans-serif;font-style:normal;font-weight:700" x="820.5" y="454.5">
    <tspan x="820.5" y="454.5">DAQ_Utils</tspan>
    <tspan x="820.5" y="470.5"></tspan>
  </text>
  <g>
    <rect style="fill: #ffffff" x="801" y="180" width="100" height="60"/>
    <rect style="fill: none; fill-opacity:0; stroke-width: 2; stroke: #000000" x="801" y="180" width="100" height="60"/>
  </g>
  <text font-size="12.8" style="fill: #000000;text-anchor:start;font-family:sans-serif;font-style:normal;font-weight:700" x="818" y="213">
    <tspan x="818" y="213">DAQ_Scan</tspan>
    <tspan x="818" y="229"></tspan>
  </text>
  <g>
    <line style="fill: none; fill-opacity:0; stroke-width: 2; stroke: #000000" x1="851.5" y1="422" x2="851.096" y2="250.713"/>
    <polygon style="fill: #000000" points="851.078,243.213 856.102,253.201 851.096,250.713 846.102,253.225 "/>
    <polygon style="fill: none; fill-opacity:0; stroke-width: 2; stroke: #000000" points="851.078,243.213 856.102,253.201 851.096,250.713 846.102,253.225 "/>
  </g>
  <text font-size="12.8" style="fill: #000000;text-anchor:start;font-family:sans-serif;font-style:normal;font-weight:normal" x="857" y="318">
    <tspan x="857" y="318">python_lib</tspan>
    <tspan x="857" y="334">custom_parameter_tree</tspan>
    <tspan x="857" y="350">plotting.QLED.qled</tspan>
  </text>
  <g>
    <rect style="fill: #ffffff" x="799" y="692" width="102" height="60"/>
    <rect style="fill: none; fill-opacity:0; stroke-width: 2; stroke: #000000" x="799" y="692" width="102" height="60"/>
  </g>
  <text font-size="12.8" style="fill: #000000;text-anchor:start;font-family:sans-serif;font-style:normal;font-weight:700" x="806" y="725">
    <tspan x="806" y="725">DAQ_Metheor</tspan>
  </text>
  <g>
    <line style="fill: none; fill-opacity:0; stroke-width: 2; stroke: #000000" x1="851.331" y1="481.944" x2="850.226" y2="681.275"/>
    <polygon style="fill: #000000" points="850.184,688.775 845.24,678.747 850.226,681.275 855.24,678.803 "/>
    <polygon style="fill: none; fill-opacity:0; stroke-width: 2; stroke: #000000" points="850.184,688.775 845.24,678.747 850.226,681.275 855.24,678.803 "/>
  </g>
  <text font-size="12.8" style="fill: #000000;text-anchor:start;font-family:sans-serif;font-style:normal;font-weight:normal" x="857" y="589">
    <tspan x="857" y="589">python_lib</tspan>
    <tspan x="857" y="605">custom_parameter_tree</tspan>
    <tspan x="857" y="621">hardware.digilent_main</tspan>
    <tspan x="857" y="637">plotting.viewer1D.viewer1D_main</tspan>
  </text>
  <g>
    <rect style="fill: #ffffff" x="501" y="179" width="100" height="61"/>
    <rect style="fill: none; fill-opacity:0; stroke-width: 2; stroke: #000000" x="501" y="179" width="100" height="61"/>
  </g>
  <text font-size="12.8" style="fill: #000000;text-anchor:start;font-family:sans-serif;font-style:normal;font-weight:700" x="512.5" y="211.5">
    <tspan x="512.5" y="211.5">DAQ_Viewer</tspan>
  </text>
  <g>
    <line style="fill: none; fill-opacity:0; stroke-width: 2; stroke: #000000" x1="601" y1="209.5" x2="790.261" y2="209.879"/>
    <polygon style="fill: #000000" points="797.761,209.894 787.751,214.874 790.261,209.879 787.771,204.874 "/>
    <polygon style="fill: none; fill-opacity:0; stroke-width: 2; stroke: #000000" points="797.761,209.894 787.751,214.874 790.261,209.879 787.771,204.874 "/>
  </g>
  <text font-size="12.8" style="fill: #000000;text-anchor:start;font-family:sans-serif;font-style:normal;font-weight:normal" x="657" y="223">
    <tspan x="657" y="223">DAQ_viewer_main</tspan>
    <tspan x="657" y="239">hardware2D</tspan>
    <tspan x="657" y="255">hardware1D</tspan>
    <tspan x="657" y="271">hardware0D</tspan>
  </text>
  <g>
    <polyline style="fill: none; fill-opacity:0; stroke-width: 2; stroke: #000000" points="800,422 551,421 551,249.736 "/>
    <polygon style="fill: #000000" points="551,242.236 556,252.236 551,249.736 546,252.236 "/>
    <polygon style="fill: none; fill-opacity:0; stroke-width: 2; stroke: #000000" points="551,242.236 556,252.236 551,249.736 546,252.236 "/>
  </g>
  <text font-size="12.8" style="fill: #000000;text-anchor:start;font-family:sans-serif;font-style:normal;font-weight:normal" x="555" y="324">
    <tspan x="555" y="324">plotter.viewer0D_viewer0D_main</tspan>
    <tspan x="555" y="340">plotter.viewer1D_viewer1D_main</tspan>
    <tspan x="555" y="356">DAQ_Utils</tspan>
    <tspan x="555" y="372">custom_parameter_tree</tspan>
  </text>
  <g>
    <rect style="fill: #ffffff" x="1128" y="181" width="100" height="58"/>
    <rect style="fill: none; fill-opacity:0; stroke-width: 2; stroke: #000000" x="1128" y="181" width="100" height="58"/>
  </g>
  <g>
    <line style="fill: none; fill-opacity:0; stroke-width: 2; stroke: #000000" x1="1128" y1="210" x2="911.735" y2="210"/>
    <polygon style="fill: #000000" points="904.235,210 914.235,205 911.735,210 914.235,215 "/>
    <polygon style="fill: none; fill-opacity:0; stroke-width: 2; stroke: #000000" points="904.235,210 914.235,205 911.735,210 914.235,215 "/>
  </g>
  <text font-size="12.8" style="fill: #000000;text-anchor:start;font-family:sans-serif;font-style:normal;font-weight:normal" x="926" y="222">
    <tspan x="926" y="222">DAQ_Move_main</tspan>
    <tspan x="926" y="238">hardware.DAQ_Move_Stage_type</tspan>
    <tspan x="926" y="254">harware</tspan>
  </text>
  <text font-size="12.8" style="fill: #000000;text-anchor:start;font-family:sans-serif;font-style:normal;font-weight:700" x="1143" y="212">
    <tspan x="1143" y="212">DAQ_Move</tspan>
  </text>
  <g>
    <polyline style="fill: none; fill-opacity:0; stroke-width: 2; stroke: #000000" points="869,421.5 1179,422 1178.19,249.652 "/>
    <polygon style="fill: #000000" points="1178.15,242.152 1183.2,252.128 1178.19,249.652 1173.2,252.176 "/>
    <polygon style="fill: none; fill-opacity:0; stroke-width: 2; stroke: #000000" points="1178.15,242.152 1183.2,252.128 1178.19,249.652 1173.2,252.176 "/>
  </g>
  <text font-size="12.8" style="fill: #000000;text-anchor:start;font-family:sans-serif;font-style:normal;font-weight:normal" x="1183" y="328">
    <tspan x="1183" y="328">custom_parameter_tree</tspan>
    <tspan x="1183" y="344">ThreadCommand</tspan>
  </text>
  <g>
    <rect style="fill: #ffffff" x="501" y="692" width="99" height="60"/>
    <rect style="fill: none; fill-opacity:0; stroke-width: 2; stroke: #000000" x="501" y="692" width="99" height="60"/>
  </g>
  <text font-size="12.8" style="fill: #000000;text-anchor:start;font-family:sans-serif;font-style:normal;font-weight:700" x="506.5" y="724">
    <tspan x="506.5" y="724">DAQ_Analysis</tspan>
  </text>
  <g>
    <polyline style="fill: none; fill-opacity:0; stroke-width: 2; stroke: #000000" points="801,481 549,480 550.248,681.276 "/>
    <polygon style="fill: #000000" points="550.294,688.775 545.232,678.807 550.248,681.276 555.232,678.745 "/>
    <polygon style="fill: none; fill-opacity:0; stroke-width: 2; stroke: #000000" points="550.294,688.775 545.232,678.807 550.248,681.276 555.232,678.745 "/>
  </g>
  <text font-size="12.8" style="fill: #000000;text-anchor:start;font-family:sans-serif;font-style:normal;font-weight:normal" x="554" y="540">
    <tspan x="554" y="540">viewer0D</tspan>
    <tspan x="554" y="556">viewer1D</tspan>
    <tspan x="554" y="572">Image_view_Multicolor</tspan>
    <tspan x="554" y="588">select_files</tspan>
    <tspan x="554" y="604">custom_parameter_tree</tspan>
    <tspan x="554" y="620">Tree_layout</tspan>
  </text>
  <g>
    <rect style="fill: #ffffff" x="1023" y="692" width="158" height="59"/>
    <rect style="fill: none; fill-opacity:0; stroke-width: 2; stroke: #000000" x="1023" y="692" width="158" height="59"/>
  </g>
  <text font-size="12.8" style="fill: #000000;text-anchor:start;font-family:sans-serif;font-style:normal;font-weight:700" x="1035" y="721.5">
    <tspan x="1035" y="721.5">DAQ_Navigation_Visu</tspan>
  </text>
  <g>
    <polyline style="fill: none; fill-opacity:0; stroke-width: 2; stroke: #000000" points="903,481 1101,480 1101.83,681.267 "/>
    <polygon style="fill: #000000" points="1101.86,688.767 1096.82,678.788 1101.83,681.267 1106.82,678.746 "/>
    <polygon style="fill: none; fill-opacity:0; stroke-width: 2; stroke: #000000" points="1101.86,688.767 1096.82,678.788 1101.83,681.267 1106.82,678.746 "/>
  </g>
  <text font-size="12.8" style="fill: #000000;text-anchor:start;font-family:sans-serif;font-style:normal;font-weight:normal" x="1105" y="541">
    <tspan x="1105" y="541">trace1D_selection</tspan>
    <tspan x="1105" y="557">Measurement_type</tspan>
  </text>
  <g>
    <rect style="fill: #ffffff" x="1228" y="420" width="136" height="61"/>
    <rect style="fill: none; fill-opacity:0; stroke-width: 2; stroke: #000000" x="1228" y="420" width="136" height="61"/>
  </g>
  <text font-size="12.8" style="fill: #000000;text-anchor:start;font-family:sans-serif;font-style:normal;font-weight:700" x="1235" y="451.5">
    <tspan x="1235" y="451.5">DAQ_Measurement</tspan>
  </text>
  <g>
    <line style="fill: none; fill-opacity:0; stroke-width: 2; stroke: #000000" x1="903" y1="451.5" x2="1217.27" y2="450.7"/>
    <polygon style="fill: #000000" points="1224.77,450.681 1214.78,455.707 1217.27,450.7 1214.75,445.707 "/>
    <polygon style="fill: none; fill-opacity:0; stroke-width: 2; stroke: #000000" points="1224.77,450.681 1214.78,455.707 1217.27,450.7 1214.75,445.707 "/>
  </g>
  <text font-size="12.8" style="fill: #000000;text-anchor:start;font-family:sans-serif;font-style:normal;font-weight:normal" x="1119" y="463">
    <tspan x="1119" y="463">gauss1D</tspan>
    <tspan x="1119" y="479">Measurement_type</tspan>
  </text>
  <text font-size="19.7556" style="fill: #000000;text-anchor:start;font-family:sans-serif;font-style:normal;font-weight:700" x="699" y="117">
    <tspan x="699" y="117">CLASS INTERACTION DIAGRAM</tspan>
    <tspan x="699" y="141.694">        (imports relations)</tspan>
  </text>
</svg>
