<?xml version="1.0" encoding="UTF-8" standalone="no"?>
<!DOCTYPE svg PUBLIC "-//W3C//DTD SVG 1.0//EN" "http://www.w3.org/TR/2001/PR-SVG-20010719/DTD/svg10.dtd">
<svg width="70cm" height="44cm" viewBox="158 158 1400 864" xmlns="http://www.w3.org/2000/svg" xmlns:xlink="http://www.w3.org/1999/xlink">
  <g>
    <rect style="fill: #ffffff" x="400" y="160" width="293" height="239" rx="10" ry="10"/>
    <rect style="fill: none; fill-opacity:0; stroke-width: 2; stroke-linejoin: round; stroke: #000000" x="400" y="160" width="293" height="239" rx="10" ry="10"/>
  </g>
  <text font-size="19.7556" style="fill: #000000;text-anchor:start;font-family:sans-serif;font-style:normal;font-weight:700" x="490.5" y="189.5">
    <tspan x="490.5" y="189.5"><a xlink:href="Class_Diagram_DAQ_Scan_details.svg">DAQ Scan</a>
  </tspan>
  </text>
  <g>
    <rect style="fill: #ffffff" x="160" y="480" width="343.5" height="380.091" rx="10" ry="10"/>
    <rect style="fill: none; fill-opacity:0; stroke-width: 2; stroke-linejoin: round; stroke: #000000" x="160" y="480" width="343.5" height="380.091" rx="10" ry="10"/>
  </g>
  <g>
    <rect style="fill: #ffffff" x="580" y="480" width="342" height="380" rx="10" ry="10"/>
    <rect style="fill: none; fill-opacity:0; stroke-width: 2; stroke-linejoin: round; stroke: #000000" x="580" y="480" width="342" height="380" rx="10" ry="10"/>
  </g>
  <text font-size="19.7556" style="fill: #000000;text-anchor:start;font-family:sans-serif;font-style:normal;font-weight:700" x="285.25" y="509.409">
    <tspan x="285.25" y="509.409"><a xlink:href="Class_Diagram_DAQ_Move_details.svg">DAQ Move</a>
  </tspan>
  </text>
  <text font-size="19.7556" style="fill: #000000;text-anchor:start;font-family:sans-serif;font-style:normal;font-weight:700" x="694" y="510.409">
    <tspan x="694" y="510.409"><a xlink:href="Class_Diagram_DAQ_Viewer_details.svg">DAQ Viewer</a>
  </tspan>
  </text>
  <g>
    <rect style="fill: none; fill-opacity:0; stroke-width: 2; stroke: #000000" x="959" y="759" width="180" height="158.554"/>
    <image x="960" y="760" width="178" height="156.554" xlink:href="./viewer0D.PNG"/>
  </g>
  <g>
    <rect style="fill: none; fill-opacity:0; stroke-width: 2; stroke: #000000" x="1159" y="759" width="180" height="159.462"/>
    <image x="1160" y="760" width="178" height="157.462" xlink:href="./viewer1D.PNG"/>
  </g>
  <g>
    <rect style="fill: none; fill-opacity:0; stroke-width: 2; stroke: #000000" x="1379" y="759" width="180" height="160.128"/>
    <image x="1380" y="760" width="178" height="158.128" xlink:href="./viewer2D.PNG"/>
  </g>
  <text font-size="12.7998" style="fill: #000000;text-anchor:start;font-family:sans-serif;font-style:normal;font-weight:normal" x="960" y="740">
    <tspan x="960" y="740">Viewer 0D</tspan>
  </text>
  <text font-size="12.7998" style="fill: #000000;text-anchor:start;font-family:sans-serif;font-style:normal;font-weight:normal" x="1160" y="740">
    <tspan x="1160" y="740">Viewer 1D</tspan>
  </text>
  <text font-size="12.7998" style="fill: #000000;text-anchor:start;font-family:sans-serif;font-style:normal;font-weight:normal" x="1380" y="740">
    <tspan x="1380" y="740">Viewer 2D</tspan>
  </text>
  <polyline style="fill: none; fill-opacity:0; stroke-width: 2; stroke: #000000" points="910,727.5 1460,727.5 1460,760 1469,760 "/>
  <polyline style="fill: none; fill-opacity:0; stroke-width: 2; stroke: #000000" points="910,727.5 1240,727.5 1240,760 1249,760 "/>
  <polyline style="fill: none; fill-opacity:0; stroke-width: 2; stroke: #000000" points="910,727.5 1040,727.5 1040,760 1049,760 "/>
  <text font-size="12.7998" style="fill: #000000;text-anchor:start;font-family:sans-serif;font-style:normal;font-weight:normal" x="940" y="720">
    <tspan x="940" y="720">Type of viewer</tspan>
  </text>
  <g>
    <polyline style="fill: none; fill-opacity:0; stroke-width: 2; stroke: #000000" points="693,279.5 751,279.5 751,470.264 "/>
    <polygon style="fill: #000000" points="751,477.764 746,467.764 751,470.264 756,467.764 "/>
    <polygon style="fill: none; fill-opacity:0; stroke-width: 2; stroke: #000000" points="751,477.764 746,467.764 751,470.264 756,467.764 "/>
  </g>
  <g>
    <polyline style="fill: none; fill-opacity:0; stroke-width: 2; stroke: #000000" points="400,279.5 331.75,279.5 331.75,470.264 "/>
    <polygon style="fill: #000000" points="331.75,477.764 326.75,467.764 331.75,470.264 336.75,467.764 "/>
    <polygon style="fill: none; fill-opacity:0; stroke-width: 2; stroke: #000000" points="331.75,477.764 326.75,467.764 331.75,470.264 336.75,467.764 "/>
  </g>
  <g>
    <rect style="fill: none; fill-opacity:0; stroke-width: 2; stroke: #000000" x="185" y="626" width="309" height="212.666"/>
    <image x="186" y="627" width="307" height="210.666" xlink:href="./DAQ_move_full.PNG"/>
  </g>
  <text font-size="12.7998" style="fill: #000000;text-anchor:start;font-family:sans-serif;font-style:normal;font-weight:normal" x="412" y="219.091">
    <tspan x="412" y="219.091">The main program use multiple instance of </tspan>
    <tspan x="412" y="235.091">DAQ Move and DAQ Viewer independantly.</tspan>
    <tspan x="412" y="251.091"></tspan>
    <tspan x="412" y="267.091">Preselected instance of DAQ Move and Viewer.</tspan>
    <tspan x="412" y="283.091"></tspan>
    <tspan x="412" y="299.091">Specific experience profile save option.</tspan>
    <tspan x="412" y="315.091"></tspan>
    <tspan x="412" y="331.091">Automatic scan involving 1 or 2 Move instance</tspan>
    <tspan x="412" y="347.091">and multiple detectors.</tspan>
    <tspan x="412" y="363.091"></tspan>
    <tspan x="412" y="379.091">Scan 2d options : linear, back and force or spiral</tspan>
  </text>
  <text font-size="12.7998" style="fill: #000000;text-anchor:start;font-family:sans-serif;font-style:normal;font-weight:normal" x="340" y="459">
    <tspan x="340" y="459">1..n</tspan>
    <tspan x="340" y="475"></tspan>
  </text>
  <text font-size="12.7998" style="fill: #000000;text-anchor:start;font-family:sans-serif;font-style:normal;font-weight:normal" x="761" y="459">
    <tspan x="761" y="459">1..m</tspan>
  </text>
  <text font-size="12.7998" style="fill: #000000;text-anchor:start;font-family:sans-serif;font-style:normal;font-weight:normal" x="942" y="932">
    <tspan x="942" y="932">Point by point value viewer</tspan>
  </text>
  <text font-size="12.7998" style="fill: #000000;text-anchor:start;font-family:sans-serif;font-style:normal;font-weight:normal" x="1146" y="932">
    <tspan x="1146" y="932">Spectrum viewer</tspan>
  </text>
  <text font-size="12.7998" style="fill: #000000;text-anchor:start;font-family:sans-serif;font-style:normal;font-weight:normal" x="1345" y="932">
    <tspan x="1345" y="932">Image viewer</tspan>
  </text>
  <text font-size="12.7998" style="fill: #000000;text-anchor:start;font-family:sans-serif;font-style:normal;font-weight:normal" x="180" y="540">
    <tspan x="180" y="540">Manage axis move on hardware : </tspan>
    <tspan x="180" y="556">   o relative move</tspan>
    <tspan x="180" y="572">   o absolute move</tspan>
    <tspan x="180" y="588">   o options :</tspan>
    <tspan x="180" y="604">        . limited range</tspan>
    <tspan x="180" y="620">        . scaled axis </tspan>
  </text>
  <text font-size="12.7998" style="fill: #000000;text-anchor:start;font-family:sans-serif;font-style:normal;font-weight:normal" x="592.909" y="538">
    <tspan x="592.909" y="538">Manage visual result in real time :</tspan>
    <tspan x="592.909" y="554">    o 0d,1d and 2d detectors</tspan>
    <tspan x="592.909" y="570">    o saving and analysis option</tspan>
    <tspan x="592.909" y="586">    o overshoot option</tspan>
  </text>
  <g>
    <rect style="fill: none; fill-opacity:0; stroke-width: 2; stroke: #000000" x="596" y="618" width="94" height="219.666"/>
    <image x="597" y="619" width="92" height="217.666" xlink:href="./DAQ_viewer_settings.PNG"/>
  </g>
  <g>
    <rect style="fill: #ffffff" x="700" y="620" width="210" height="215"/>
    <rect style="fill: none; fill-opacity:0; stroke-width: 2; stroke: #000000" x="700" y="620" width="210" height="215"/>
  </g>
  <text font-size="16.9333" style="fill: #000000;text-anchor:start;font-family:sans-serif;font-style:normal;font-weight:700" x="740" y="740">
    <tspan x="740" y="740">graphic window</tspan>
  </text>
  <g>
    <rect style="fill: #ffffff" x="160" y="900" width="343.5" height="120" rx="10" ry="10"/>
    <rect style="fill: none; fill-opacity:0; stroke-width: 2; stroke-linejoin: round; stroke: #000000" x="160" y="900" width="343.5" height="120" rx="10" ry="10"/>
  </g>
  <g>
    <rect style="fill: #ffffff" x="580" y="900" width="342" height="121" rx="10" ry="10"/>
    <rect style="fill: none; fill-opacity:0; stroke-width: 2; stroke-linejoin: round; stroke: #000000" x="580" y="900" width="342" height="121" rx="10" ry="10"/>
  </g>
  <text font-size="12.7998" style="fill: #000000;text-anchor:start;font-family:sans-serif;font-style:normal;font-weight:normal" x="331.75" y="960">
    <tspan x="331.75" y="960"></tspan>
  </text>
  <text font-size="19.7556" style="fill: #000000;text-anchor:start;font-family:sans-serif;font-style:normal;font-weight:700" x="280" y="940">
    <tspan x="280" y="940">Hardware</tspan>
  </text>
  <text font-size="12.7998" style="fill: #000000;text-anchor:start;font-family:sans-serif;font-style:normal;font-weight:normal" x="180" y="980">
    <tspan x="180" y="980">o Bultin hardware</tspan>
    <tspan x="180" y="996">o Custom plugins following a template</tspan>
  </text>
  <g>
    <rect style="fill: #ffffff" x="1000" y="180" width="411" height="426" rx="10" ry="10"/>
    <rect style="fill: none; fill-opacity:0; stroke-width: 2; stroke-linejoin: round; stroke: #000000" x="1000" y="180" width="411" height="426" rx="10" ry="10"/>
  </g>
  <text font-size="19.7556" style="fill: #000000;text-anchor:start;font-family:sans-serif;font-style:normal;font-weight:700" x="1121" y="219">
    <tspan x="1121" y="219">Scan example</tspan>
  </text>
  <text font-size="12.7998" style="fill: #000000;text-anchor:start;font-family:sans-serif;font-style:normal;font-weight:normal" x="1021" y="259">
    <tspan x="1021" y="259">Scan imply differents type of analysis, here is an explication of</tspan>
    <tspan x="1021" y="275">differents possibles interpretations of a scan</tspan>
  </text>
  <text font-size="19.7556" style="fill: #000000;text-anchor:start;font-family:sans-serif;font-style:normal;font-weight:700" x="700" y="940">
    <tspan x="700" y="940">Hardware</tspan>
  </text>
  <text font-size="12.7998" style="fill: #000000;text-anchor:start;font-family:sans-serif;font-style:normal;font-weight:normal" x="600" y="980">
    <tspan x="600" y="980">DAQ Viewer Hardware features implements differents</tspan>
    <tspan x="600" y="996">types of detectors 0D, 1D or 2D</tspan>
  </text>
  <g>
    <line style="fill: none; fill-opacity:0; stroke-width: 2; stroke-linejoin: round; stroke: #000000" x1="331.75" y1="860.091" x2="331.75" y2="890.264"/>
    <polygon style="fill: #000000" points="331.75,897.764 326.75,887.764 331.75,890.264 336.75,887.764 "/>
    <polygon style="fill: none; fill-opacity:0; stroke-width: 2; stroke: #000000" points="331.75,897.764 326.75,887.764 331.75,890.264 336.75,887.764 "/>
  </g>
  <g>
    <line style="fill: none; fill-opacity:0; stroke-width: 2; stroke: #000000" x1="751" y1="860" x2="751" y2="890.264"/>
    <polygon style="fill: #000000" points="751,897.764 746,887.764 751,890.264 756,887.764 "/>
    <polygon style="fill: none; fill-opacity:0; stroke-width: 2; stroke: #000000" points="751,897.764 746,887.764 751,890.264 756,887.764 "/>
  </g>
  <image x="1061" y="339" width="287.551" height="233.795" xlink:href="./Scan_spiral.PNG"/>
  <text font-size="12.7998" style="fill: #000000;text-anchor:start;font-family:sans-serif;font-style:normal;font-weight:normal" x="1061" y="299">
    <tspan x="1061" y="299"><a xlink:href="file:SCAN_1D.svg">o Scan 1D</a>
  </tspan>
  </text>
  <text font-size="12.7998" style="fill: #000000;text-anchor:start;font-family:sans-serif;font-style:normal;font-weight:normal" x="1061" y="319">
    <tspan x="1061" y="319"><a xlink:href="file:SCAN_2D.svg">o Scan 2D</a>
  </tspan>
  </text>
</svg>
