<?xml version="1.0" encoding="UTF-8" standalone="no"?>
<!-- Created with Inkscape (http://www.inkscape.org/) -->

<svg
   width="240mm"
   height="100mm"
   viewBox="0 0 240 100"
   version="1.1"
   id="svg5"
   inkscape:version="1.1.2 (0a00cf5339, 2022-02-04)"
   sodipodi:docname="git_branch_final.svg"
   xmlns:inkscape="http://www.inkscape.org/namespaces/inkscape"
   xmlns:sodipodi="http://sodipodi.sourceforge.net/DTD/sodipodi-0.dtd"
   xmlns="http://www.w3.org/2000/svg"
   xmlns:svg="http://www.w3.org/2000/svg">
  <sodipodi:namedview
     id="namedview7"
     pagecolor="#ffffff"
     bordercolor="#666666"
     borderopacity="1.0"
     inkscape:pageshadow="2"
     inkscape:pageopacity="0.0"
     inkscape:pagecheckerboard="0"
     inkscape:document-units="mm"
     showgrid="false"
     inkscape:zoom="0.5"
     inkscape:cx="452"
     inkscape:cy="189"
     inkscape:window-width="1280"
     inkscape:window-height="751"
     inkscape:window-x="0"
     inkscape:window-y="25"
     inkscape:window-maximized="1"
     inkscape:current-layer="layer1"
     inkscape:snap-nodes="false"
     inkscape:snap-global="false" />
  <defs
     id="defs2">
    <marker
       style="overflow:visible"
       id="Arrow2Mstart"
       refX="0"
       refY="0"
       orient="auto"
       inkscape:stockid="Arrow2Mstart"
       inkscape:isstock="true">
      <path
         transform="scale(0.6)"
         d="M 8.7185878,4.0337352 -2.2072895,0.01601326 8.7185884,-4.0017078 c -1.7454984,2.3720609 -1.7354408,5.6174519 -6e-7,8.035443 z"
         style="fill:context-stroke;fill-rule:evenodd;stroke:context-stroke;stroke-width:0.625;stroke-linejoin:round"
         id="path43351" />
    </marker>
    <marker
       style="overflow:visible"
       id="Arrow1Mstart"
       refX="0"
       refY="0"
       orient="auto"
       inkscape:stockid="Arrow1Mstart"
       inkscape:isstock="true">
      <path
         transform="matrix(0.4,0,0,0.4,4,0)"
         style="fill:context-stroke;fill-rule:evenodd;stroke:context-stroke;stroke-width:1pt"
         d="M 0,0 5,-5 -12.5,0 5,5 Z"
         id="path43333" />
    </marker>
    <marker
       style="overflow:visible"
       id="Arrow1Lstart"
       refX="0"
       refY="0"
       orient="auto"
       inkscape:stockid="Arrow1Lstart"
       inkscape:isstock="true">
      <path
         transform="matrix(0.8,0,0,0.8,10,0)"
         style="fill:context-stroke;fill-rule:evenodd;stroke:context-stroke;stroke-width:1pt"
         d="M 0,0 5,-5 -12.5,0 5,5 Z"
         id="path43327" />
    </marker>
  </defs>
  <g
     inkscape:label="Layer 1"
     inkscape:groupmode="layer"
     id="layer1">
    <g
       id="g919"
       transform="translate(0.75198522,-105.52138)">
      <path
         style="fill:#008000;stroke:#008000;stroke-width:0.5;stroke-linecap:butt;stroke-linejoin:miter;stroke-miterlimit:4;stroke-dasharray:none;stroke-opacity:1"
         d="m 52.680912,163.90029 67.352348,-0.0474"
         id="path48384" />
      <path
         style="fill:#008000;stroke:none;stroke-width:1.88976"
         id="path48386"
         sodipodi:type="arc"
         sodipodi:cx="70.25753"
         sodipodi:cy="164.11734"
         sodipodi:rx="2.2559164"
         sodipodi:ry="2.2559164"
         sodipodi:start="0.031462174"
         sodipodi:end="0.031212862"
         sodipodi:arc-type="slice"
         d="m 72.51233,164.1883 a 2.2559164,2.2559164 0 0 1 -2.325624,2.18384 2.2559164,2.2559164 0 0 1 -2.183985,-2.32548 2.2559164,2.2559164 0 0 1 2.325352,-2.18413 2.2559164,2.2559164 0 0 1 2.184275,2.32521 l -2.254818,-0.0704 z" />
      <text
         xml:space="preserve"
         style="font-style:normal;font-weight:normal;font-size:6.4856px;line-height:1.25;font-family:sans-serif;letter-spacing:0px;word-spacing:0px;fill:#008000;fill-opacity:1;stroke:none;stroke-width:0.076003"
         x="34.26086"
         y="165.84346"
         id="text48390"><tspan
           sodipodi:role="line"
           id="tspan48388"
           style="fill:#008000;stroke-width:0.076003"
           x="34.26086"
           y="165.84346">main</tspan></text>
      <text
         xml:space="preserve"
         style="font-style:normal;font-weight:normal;font-size:4.23333px;line-height:1.25;font-family:sans-serif;letter-spacing:0px;word-spacing:0px;fill:#000000;fill-opacity:1;stroke:none;stroke-width:0.076003"
         x="127.58102"
         y="70.57798"
         id="text48394"
         transform="rotate(43.707467)"><tspan
           sodipodi:role="line"
           id="tspan48392"
           style="font-size:4.23333px;fill:#000000;stroke-width:0.076003"
           x="127.58102"
           y="70.57798">Initial commit</tspan></text>
      <text
         xml:space="preserve"
         style="font-style:normal;font-weight:normal;font-size:4.23333px;line-height:1.25;font-family:sans-serif;letter-spacing:0px;word-spacing:0px;fill:#000000;fill-opacity:1;stroke:none;stroke-width:0.076003"
         x="142.43697"
         y="49.227844"
         id="text48398"
         transform="rotate(44.601326)"
         inkscape:transform-center-x="15.311704"
         inkscape:transform-center-y="-11.443299"><tspan
           sodipodi:role="line"
           id="tspan48396"
           style="font-size:4.23333px;fill:#000000;stroke-width:0.076003"
           x="142.43697"
           y="49.227844">Add the monkey</tspan></text>
      <text
         xml:space="preserve"
         style="font-style:normal;font-weight:normal;font-size:4.23333px;line-height:1.25;font-family:sans-serif;letter-spacing:0px;word-spacing:0px;fill:#000000;fill-opacity:1;stroke:none;stroke-width:0.076003"
         x="152.75636"
         y="18.840006"
         id="text48402"
         transform="rotate(48.012118)"><tspan
           sodipodi:role="line"
           id="tspan48400"
           style="font-size:4.23333px;fill:#000000;stroke-width:0.076003"
           x="152.75636"
           y="18.840006">Remove the monkey</tspan></text>
      <path
         style="fill:#008000;stroke:none;stroke-width:1.88976"
         id="path48408"
         sodipodi:type="arc"
         sodipodi:cx="93.969513"
         sodipodi:cy="164.06668"
         sodipodi:rx="2.2559164"
         sodipodi:ry="2.2559164"
         sodipodi:start="0.031462174"
         sodipodi:end="0.031212862"
         sodipodi:arc-type="slice"
         d="m 96.224313,164.13765 a 2.2559164,2.2559164 0 0 1 -2.325624,2.18384 2.2559164,2.2559164 0 0 1 -2.183985,-2.32549 2.2559164,2.2559164 0 0 1 2.325352,-2.18413 2.2559164,2.2559164 0 0 1 2.184274,2.32521 l -2.254817,-0.0704 z" />
      <path
         style="fill:#008000;stroke:none;stroke-width:1.88976"
         id="path48410"
         sodipodi:type="arc"
         sodipodi:cx="120.03326"
         sodipodi:cy="163.85289"
         sodipodi:rx="2.2559164"
         sodipodi:ry="2.2559164"
         sodipodi:start="0.031462174"
         sodipodi:end="0.031212862"
         sodipodi:arc-type="slice"
         d="m 122.28806,163.92385 a 2.2559164,2.2559164 0 0 1 -2.32563,2.18384 2.2559164,2.2559164 0 0 1 -2.18398,-2.32548 2.2559164,2.2559164 0 0 1 2.32535,-2.18413 2.2559164,2.2559164 0 0 1 2.18427,2.32521 l -2.25481,-0.0704 z" />
      <path
         style="fill:#008000;stroke:#008000;stroke-width:0.5;stroke-linecap:butt;stroke-linejoin:miter;stroke-miterlimit:4;stroke-dasharray:none;stroke-opacity:1"
         d="m 52.680912,163.90029 67.352348,-0.0474"
         id="path48412" />
      <path
         style="fill:#008000;stroke:none;stroke-width:1.88976"
         id="path48414"
         sodipodi:type="arc"
         sodipodi:cx="93.969513"
         sodipodi:cy="164.06668"
         sodipodi:rx="2.2559164"
         sodipodi:ry="2.2559164"
         sodipodi:start="0.031462174"
         sodipodi:end="0.031212862"
         sodipodi:arc-type="slice"
         d="m 96.224313,164.13765 a 2.2559164,2.2559164 0 0 1 -2.325624,2.18384 2.2559164,2.2559164 0 0 1 -2.183985,-2.32549 2.2559164,2.2559164 0 0 1 2.325352,-2.18413 2.2559164,2.2559164 0 0 1 2.184274,2.32521 l -2.254817,-0.0704 z" />
      <path
         style="fill:#008000;stroke:none;stroke-width:1.88976"
         id="path48416"
         sodipodi:type="arc"
         sodipodi:cx="120.03326"
         sodipodi:cy="163.85289"
         sodipodi:rx="2.2559164"
         sodipodi:ry="2.2559164"
         sodipodi:start="0.031462174"
         sodipodi:end="0.031212862"
         sodipodi:arc-type="slice"
         d="m 122.28806,163.92385 a 2.2559164,2.2559164 0 0 1 -2.32563,2.18384 2.2559164,2.2559164 0 0 1 -2.18398,-2.32548 2.2559164,2.2559164 0 0 1 2.32535,-2.18413 2.2559164,2.2559164 0 0 1 2.18427,2.32521 l -2.25481,-0.0704 z" />
      <path
         style="fill:#008000;stroke:#008000;stroke-width:0.5;stroke-linecap:butt;stroke-linejoin:miter;stroke-miterlimit:4;stroke-dasharray:none;stroke-opacity:1"
         d="m 105.06847,163.90029 67.35262,-0.0474"
         id="path48418" />
      <path
         style="fill:#008000;stroke:none;stroke-width:1.88976"
         id="path48420"
         sodipodi:type="arc"
         sodipodi:cx="146.35675"
         sodipodi:cy="164.06668"
         sodipodi:rx="2.2559164"
         sodipodi:ry="2.2559164"
         sodipodi:start="0.031462174"
         sodipodi:end="0.031212862"
         sodipodi:arc-type="slice"
         d="m 148.61155,164.13765 a 2.2559164,2.2559164 0 0 1 -2.32562,2.18384 2.2559164,2.2559164 0 0 1 -2.18399,-2.32549 2.2559164,2.2559164 0 0 1 2.32535,-2.18413 2.2559164,2.2559164 0 0 1 2.18428,2.32521 l -2.25482,-0.0704 z" />
      <path
         style="fill:#008000;stroke:none;stroke-width:1.88976"
         id="path48422"
         sodipodi:type="arc"
         sodipodi:cx="172.42017"
         sodipodi:cy="163.85289"
         sodipodi:rx="2.2559164"
         sodipodi:ry="2.2559164"
         sodipodi:start="0.031462174"
         sodipodi:end="0.031212862"
         sodipodi:arc-type="slice"
         d="m 174.67497,163.92385 a 2.2559164,2.2559164 0 0 1 -2.32563,2.18384 2.2559164,2.2559164 0 0 1 -2.18398,-2.32548 2.2559164,2.2559164 0 0 1 2.32535,-2.18413 2.2559164,2.2559164 0 0 1 2.18427,2.32521 l -2.25481,-0.0704 z" />
      <text
         xml:space="preserve"
         style="font-style:normal;font-weight:normal;font-size:4.23333px;line-height:1.25;font-family:sans-serif;letter-spacing:0px;word-spacing:0px;fill:#000000;fill-opacity:1;stroke:none;stroke-width:0.076003"
         x="189.45326"
         y="1.5590198"
         id="text48426"
         transform="rotate(47.474653)"
         inkscape:transform-center-x="14.715433"
         inkscape:transform-center-y="-12.199809"><tspan
           sodipodi:role="line"
           id="tspan48424"
           style="font-size:4.23333px;fill:#000000;stroke-width:0.076003"
           x="189.45326"
           y="1.5590198">Add a bird</tspan></text>
      <text
         xml:space="preserve"
         style="font-style:normal;font-weight:normal;font-size:4.23333px;line-height:1.25;font-family:sans-serif;letter-spacing:0px;word-spacing:0px;fill:#000000;fill-opacity:1;stroke:none;stroke-width:0.076003"
         x="196.94221"
         y="-22.835581"
         id="text48510"
         transform="rotate(48.597466)"
         inkscape:transform-center-x="14.493259"
         inkscape:transform-center-y="-12.466509"><tspan
           sodipodi:role="line"
           id="tspan48508"
           style="font-size:4.23333px;fill:#000000;stroke-width:0.076003"
           x="196.94221"
           y="-22.835581">Add a mosquito</tspan></text>
      <text
         xml:space="preserve"
         style="font-style:normal;font-weight:normal;font-size:4.23333px;line-height:1.25;font-family:sans-serif;letter-spacing:0px;word-spacing:0px;fill:#000000;fill-opacity:1;stroke:none;stroke-width:0.076003"
         x="213.11879"
         y="-19.282043"
         id="text48514"
         transform="rotate(49.232934)"><tspan
           sodipodi:role="line"
           id="tspan48512"
           style="font-size:4.23333px;fill:#000000;stroke-width:0.076003"
           x="213.11879"
           y="-19.282043">(HEAD)</tspan></text>
    </g>
  </g>
</svg>
