<?xml version="1.0" encoding="UTF-8" standalone="no"?>
<!DOCTYPE svg PUBLIC "-//W3C//DTD SVG 1.0//EN" "http://www.w3.org/TR/2001/PR-SVG-20010719/DTD/svg10.dtd">
<svg width="78cm" height="40cm" viewBox="318 -2 1543 786" xmlns="http://www.w3.org/2000/svg" xmlns:xlink="http://www.w3.org/1999/xlink">
  <g>
    <rect style="fill: #ffffff" x="320" y="300" width="300" height="298" rx="20" ry="20"/>
    <rect style="fill: none; fill-opacity:0; stroke-width: 2; stroke-linejoin: round; stroke: #000000" x="320" y="300" width="300" height="298" rx="20" ry="20"/>
  </g>
  <text font-size="19.7556" style="fill: #000000;text-anchor:start;font-family:sans-serif;font-style:normal;font-weight:700" x="400" y="340">
    <tspan x="400" y="340">DETECTOR 0D</tspan>
  </text>
  <g>
    <rect style="fill: #ffffff" x="700" y="300" width="499.354" height="483.582" rx="20" ry="20"/>
    <rect style="fill: none; fill-opacity:0; stroke-width: 2; stroke-linejoin: round; stroke: #000000" x="700" y="300" width="499.354" height="483.582" rx="20" ry="20"/>
  </g>
  <text font-size="19.7556" style="fill: #000000;text-anchor:start;font-family:sans-serif;font-style:normal;font-weight:700" x="875.456" y="330">
    <tspan x="875.456" y="330">DETECTOR 1D</tspan>
  </text>
  <g>
    <rect style="fill: #ffffff" x="1280.45" y="301" width="579.942" height="478.672" rx="20" ry="20"/>
    <rect style="fill: none; fill-opacity:0; stroke-width: 2; stroke-linejoin: round; stroke: #000000" x="1280.45" y="301" width="579.942" height="478.672" rx="20" ry="20"/>
  </g>
  <text font-size="19.7556" style="fill: #000000;text-anchor:start;font-family:sans-serif;font-style:normal;font-weight:700" x="1500.2" y="332">
    <tspan x="1500.2" y="332">DETECTOR 2D</tspan>
  </text>
  <g>
    <rect style="fill: none; fill-opacity:0; stroke-width: 2; stroke: #000000" x="359" y="359" width="209.379" height="183.506"/>
    <image x="360" y="360" width="207.379" height="181.506" xlink:href="./SCAN%201D/data0D.PNG"/>
  </g>
  <text font-size="12.8" style="fill: #000000;text-anchor:start;font-family:sans-serif;font-style:normal;font-weight:normal" x="344.342" y="558.55">
    <tspan x="344.342" y="558.55">2 Channels of 0D data represented </tspan>
    <tspan x="344.342" y="574.55">as a function of one Move axis in the 1D</tspan>
    <tspan x="344.342" y="590.55">plot panel</tspan>
  </text>
  <g>
    <rect style="fill: none; fill-opacity:0; stroke-width: 2; stroke: #000000" x="719" y="339" width="209.379" height="182.381"/>
    <image x="720" y="340" width="207.379" height="180.381" xlink:href="./SCAN%201D/data1D_0d.PNG"/>
  </g>
  <g>
    <rect style="fill: none; fill-opacity:0; stroke-width: 2; stroke: #000000" x="719" y="559" width="234.087" height="182.512"/>
    <image x="720" y="560" width="232.087" height="180.512" xlink:href="./SCAN%201D/data1D_spectrum.PNG"/>
  </g>
  <text font-size="12.8" style="fill: #0000ff;text-anchor:start;font-family:sans-serif;font-style:normal;font-weight:normal" x="970.922" y="555.804">
    <tspan x="970.922" y="555.804">1 channel of 0D data representing the</tspan>
    <tspan x="970.922" y="571.804">math function used on channel 0</tspan>
    <tspan x="970.922" y="587.804">(avaible in spectrum settings)</tspan>
  </text>
  <text font-size="12.8" style="fill: #ff0000;text-anchor:start;font-family:sans-serif;font-style:normal;font-weight:normal" x="967.216" y="630.196">
    <tspan x="967.216" y="630.196">2 1D channels represented </tspan>
    <tspan x="967.216" y="646.196">as a function of one Move axis.</tspan>
  </text>
  <g>
    <rect style="fill: #ffffff" x="825.886" y="0" width="246.655" height="194.172" rx="20" ry="20"/>
    <rect style="fill: none; fill-opacity:0; stroke-width: 2; stroke-linejoin: round; stroke: #000000" x="825.886" y="0" width="246.655" height="194.172" rx="20" ry="20"/>
  </g>
  <text font-size="19.7556" style="fill: #000000;text-anchor:start;font-family:sans-serif;font-style:normal;font-weight:700" x="898.918" y="28.3481">
    <tspan x="898.918" y="28.3481">SCAN 1D</tspan>
  </text>
  <text font-size="12.8" style="fill: #000000;text-anchor:start;font-family:sans-serif;font-style:normal;font-weight:normal" x="832.858" y="51.1859">
    <tspan x="832.858" y="51.1859">A given set of detectors as a function of</tspan>
    <tspan x="832.858" y="67.1859">one selected move axis.</tspan>
    <tspan x="832.858" y="83.1859">Three type of detectors :</tspan>
    <tspan x="832.858" y="99.1859">   o 0D</tspan>
    <tspan x="832.858" y="115.186">   o 1D : data type could be 1D or 0D </tspan>
    <tspan x="832.858" y="131.186">(subset or average for instance)</tspan>
    <tspan x="832.858" y="147.186">   o 2D : data type could be 2D, 1D </tspan>
    <tspan x="832.858" y="163.186">(region of interest lineouts for instance),</tspan>
    <tspan x="832.858" y="179.186"> 0D (full integration for instance) </tspan>
  </text>
  <g>
    <rect style="fill: none; fill-opacity:0; stroke-width: 2; stroke: #000000" x="1639" y="339" width="175.131" height="206.047"/>
    <image x="1640" y="340" width="173.131" height="204.047" xlink:href="./SCAN%201D/data2D.PNG"/>
  </g>
  <g>
    <rect style="fill: none; fill-opacity:0; stroke-width: 2; stroke: #000000" x="1299" y="339" width="239.88" height="189.629"/>
    <image x="1300" y="340" width="237.88" height="187.629" xlink:href="./SCAN%201D/data2D_spectrum.PNG"/>
  </g>
  <text font-size="12.8" style="fill: #a020f0;text-anchor:start;font-family:sans-serif;font-style:normal;font-weight:normal" x="1564.66" y="591.458">
    <tspan x="1564.66" y="591.458">The image result of the acquisition.</tspan>
    <tspan x="1564.66" y="607.458">Top up/left graph is 2D data image.</tspan>
    <tspan x="1564.66" y="623.458"></tspan>
  </text>
  <g>
    <rect style="fill: none; fill-opacity:0; stroke-width: 2; stroke: #000000" x="1299" y="549" width="239.88" height="187.731"/>
    <image x="1300" y="550" width="237.88" height="185.731" xlink:href="./SCAN%201D/data2D_0d.PNG"/>
  </g>
  <rect style="fill: none; fill-opacity:0; stroke-width: 2; stroke-dasharray: 4; stroke: #0000ff" x="1766.26" y="491.093" width="48.6949" height="48.9072"/>
  <rect style="fill: none; fill-opacity:0; stroke-width: 2; stroke-dasharray: 4; stroke: #0000ff" x="1295.5" y="546.878" width="246.37" height="192.998"/>
  <rect style="fill: none; fill-opacity:0; stroke-width: 2; stroke-dasharray: 4; stroke: #ff0000" x="1778.52" y="349.975" width="32.9581" height="136.312"/>
  <rect style="fill: none; fill-opacity:0; stroke-width: 2; stroke-dasharray: 4; stroke: #ff0000" x="1321.62" y="381.618" width="142.82" height="102.025"/>
  <rect style="fill: none; fill-opacity:0; stroke-width: 2; stroke-dasharray: 4; stroke: #ff0000" x="1640" y="489.068" width="126.247" height="57.7964"/>
  <rect style="fill: none; fill-opacity:0; stroke-width: 2; stroke-dasharray: 4; stroke: #ff0000" x="1320.92" y="485.415" width="143.07" height="15.04"/>
  <polyline style="fill: none; fill-opacity:0; stroke-width: 2; stroke-dasharray: 4; stroke: #ff0000" points="1778.52,418.131 1470,418.131 1470,432.631 1464.44,432.631 "/>
  <polyline style="fill: none; fill-opacity:0; stroke-width: 2; stroke-dasharray: 4; stroke: #ff0000" points="1640,517.967 1467.54,517.967 1467.54,500.455 1463.99,500.455 "/>
  <polyline style="fill: none; fill-opacity:0; stroke-width: 2; stroke-dasharray: 4; stroke: #0000ff" points="1790.61,540 1790.61,573.576 1541.87,573.576 1541.87,643.377 "/>
  <g>
    <polyline style="fill: none; fill-opacity:0; stroke-width: 2; stroke: #000000" points="949.214,194.172 949.214,251.272 470,251.272 470,290.264 "/>
    <polygon style="fill: #000000" points="470,297.764 465,287.764 470,290.264 475,287.764 "/>
    <polygon style="fill: none; fill-opacity:0; stroke-width: 2; stroke: #000000" points="470,297.764 465,287.764 470,290.264 475,287.764 "/>
  </g>
  <g>
    <polyline style="fill: none; fill-opacity:0; stroke-width: 2; stroke: #000000" points="949.214,194.172 949.214,251.272 1570.42,251.272 1570.42,291.264 "/>
    <polygon style="fill: #000000" points="1570.42,298.764 1565.42,288.764 1570.42,291.264 1575.42,288.764 "/>
    <polygon style="fill: none; fill-opacity:0; stroke-width: 2; stroke: #000000" points="1570.42,298.764 1565.42,288.764 1570.42,291.264 1575.42,288.764 "/>
  </g>
  <g>
    <polyline style="fill: none; fill-opacity:0; stroke-width: 2; stroke: #000000" points="949.214,194.172 949.214,247.086 949.677,247.086 949.677,290.264 "/>
    <polygon style="fill: #000000" points="949.677,297.764 944.677,287.764 949.677,290.264 954.677,287.764 "/>
    <polygon style="fill: none; fill-opacity:0; stroke-width: 2; stroke: #000000" points="949.677,297.764 944.677,287.764 949.677,290.264 954.677,287.764 "/>
  </g>
  <g>
    <rect style="fill: #ffffff" x="331.622" y="0.926858" width="80" height="36" rx="20" ry="20"/>
    <rect style="fill: none; fill-opacity:0; stroke-width: 2; stroke: #000000" x="331.622" y="0.926858" width="80" height="36" rx="20" ry="20"/>
    <text font-size="12.8" style="fill: #000000;text-anchor:middle;font-family:sans-serif;font-style:normal;font-weight:normal" x="371.622" y="23.7269">
      <tspan x="371.622" y="23.7269"><a xlink:href="Main_diagramm.svg">UP</a>
    </tspan>
    </text>
  </g>
  <g>
    <rect style="fill: none; fill-opacity:0; stroke-width: 2; stroke: #000000" x="959" y="359" width="209.379" height="166.041"/>
    <image x="960" y="360" width="207.379" height="164.041" xlink:href="./SCAN%201D/data1D.PNG"/>
  </g>
  <rect style="fill: none; fill-opacity:0; stroke-width: 2; stroke-dasharray: 4; stroke: #0000ff" x="1128.08" y="498.437" width="39.1183" height="25.6757"/>
  <rect style="fill: none; fill-opacity:0; stroke-width: 2; stroke-dasharray: 4; stroke: #0000ff" x="716.636" y="336.636" width="214.837" height="187.066"/>
  <polyline style="fill: none; fill-opacity:0; stroke-width: 2; stroke-dasharray: 4; stroke: #0000ff" points="1147.64,524.112 1147.94,524.112 1147.94,523.702 931.473,523.702 "/>
  <rect style="fill: none; fill-opacity:0; stroke-width: 2; stroke-dasharray: 4; stroke: #ff0000" x="958.128" y="369.835" width="117.521" height="126.003"/>
  <rect style="fill: none; fill-opacity:0; stroke-width: 2; stroke-dasharray: 4; stroke: #ff0000" x="716.636" y="555.796" width="239.137" height="187.9"/>
  <polyline style="fill: none; fill-opacity:0; stroke-width: 2; stroke-dasharray: 4; stroke: #ff0000" points="1016.89,495.838 960.414,495.838 960.414,649.745 955.773,649.745 "/>
  <rect style="fill: none; fill-opacity:0; stroke-width: 2; stroke-dasharray: 4; stroke: #a020f0" x="1642.29" y="354.192" width="123.712" height="129.98"/>
  <text font-size="12.8" style="fill: #000000;text-anchor:start;font-family:sans-serif;font-style:normal;font-weight:normal" x="1578.75" y="804.234">
    <tspan x="1578.75" y="804.234"></tspan>
  </text>
  <text font-size="12.8" style="fill: #ff0000;text-anchor:start;font-family:sans-serif;font-style:normal;font-weight:normal" x="1563.89" y="630.018">
    <tspan x="1563.89" y="630.018">Top down/left and up/right are 1D data</tspan>
    <tspan x="1563.89" y="646.018">representing the integration of 2D data values</tspan>
    <tspan x="1563.89" y="662.018">in the region of interest (respectivly horizontal</tspan>
    <tspan x="1563.89" y="678.018">and vertical  integrations), meaning the 1D lineouts</tspan>
  </text>
  <text font-size="12.8" style="fill: #0000ff;text-anchor:start;font-family:sans-serif;font-style:normal;font-weight:normal" x="1564.48" y="703.154">
    <tspan x="1564.48" y="703.154">Top down/right is 0D value representing the</tspan>
    <tspan x="1564.48" y="719.154">full region of interest integration</tspan>
    <tspan x="1564.48" y="735.154">(appears in the 1D plot panel of the DAQ Scan)</tspan>
  </text>
</svg>
